<svg xmlns="http://www.w3.org/2000/svg" viewBox="0 0 200 240" fill="none">
  <style>
    @import url('https://fonts.googleapis.com/css2?family=Space+Grotesk:wght@700&amp;display=swap');
  </style>

  <!-- Shield outline: heater shield, flat top, pointed bottom, hand-cut imperfections -->
  <path d="M10 8 L190 10 L192 140 L102 232 L8 138 Z"
        stroke="#1a1a1a" stroke-width="4" fill="none" stroke-linejoin="round"/>

  <!-- Plank lines: 3 vertical lines with subtle wave via cubic bezier -->
  <path d="M58 10 C59 50, 57 100, 58 138" stroke="#1a1a1a" stroke-width="1.5"/>
  <path d="M102 10 C101 60, 103 110, 102 170" stroke="#1a1a1a" stroke-width="1.5"/>
  <path d="M144 10 C143 50, 145 100, 144 138" stroke="#1a1a1a" stroke-width="1.5"/>

  <!-- Crack: branching off middle plank at ~45 degrees with small fork -->
  <path d="M102 90 L117 75" stroke="#1a1a1a" stroke-width="1.5" stroke-linecap="round"/>
  <path d="M112 82 L118 79 L121 81" stroke="#1a1a1a" stroke-width="1.2" stroke-linecap="round" stroke-linejoin="round"/>

  <!-- Upper iron band: solid filled rectangle, rust color -->
  <rect x="14" y="60" width="172" height="12" rx="1" fill="#c45d3e"/>

  <!-- Lower iron band: path with a kink/bend at one point (~3px offset downward) -->
  <path d="M14 150 L80 150 L85 153 L90 150 L172 150 L172 162 L90 162 L85 165 L80 162 L14 162 Z" fill="#c45d3e"/>

  <!-- Rivets: 6 filled circles at band-plank intersections -->
  <circle cx="58" cy="66" r="3" fill="#c45d3e" stroke="#1a1a1a" stroke-width="1"/>
  <circle cx="102" cy="66" r="3" fill="#c45d3e" stroke="#1a1a1a" stroke-width="1"/>
  <circle cx="144" cy="66" r="3" fill="#c45d3e" stroke="#1a1a1a" stroke-width="1"/>
  <circle cx="58" cy="156" r="3" fill="#c45d3e" stroke="#1a1a1a" stroke-width="1"/>
  <circle cx="102" cy="156" r="3" fill="#c45d3e" stroke="#1a1a1a" stroke-width="1"/>
  <circle cx="144" cy="156" r="3" fill="#c45d3e" stroke="#1a1a1a" stroke-width="1"/>

  <!-- Text: BUILD centered above upper band, CHARACTER centered below lower band -->
  <text x="100" y="50" text-anchor="middle" font-family="'Space Grotesk', sans-serif" font-weight="700"
        font-size="22" fill="#1a1a1a" letter-spacing="3">BUILD</text>
  <text x="100" y="192" text-anchor="middle" font-family="'Space Grotesk', sans-serif" font-weight="700"
        font-size="18" fill="#1a1a1a" letter-spacing="2">CHARACTER</text>
</svg>
